<svg xmlns="http://www.w3.org/2000/svg" width="32" height="32" viewBox="0 0 32 32" fill="none">
  <rect width="32" height="32" fill="black" rx="6"/>
  <path d="M16.1078 24.8458L12.8001 12.9691M12.8001 12.9691L16.1078 6.9531M12.8001 12.9691L25.3428 16.1437M12.8001 12.9691L6.59302 16.1437" stroke="#404040"/>
  <path d="M15.8539 25.6164L18.4998 17.9523M6.63867 15.8557L18.5263 17.9379M18.5642 17.9379L25.3428 15.9907M15.9451 6.6842L18.602 17.9379" stroke="white" stroke-width="1.42857"/>
  <path d="M15.4194 6.58065C15.74 6.25996 16.26 6.25996 16.5806 6.58065L25.4194 15.4194C25.74 15.74 25.74 16.26 25.4194 16.5806L16.5806 25.4194C16.26 25.74 15.74 25.74 15.4194 25.4194L6.58065 16.5806C6.25996 16.26 6.25996 15.74 6.58065 15.4194L15.4194 6.58065Z" stroke="white" stroke-width="1.42857"/>
  <path d="M17.0859 17.2224C17.7063 17.2224 17.8006 16.6445 17.7702 16.3556C18.0287 16.2644 18.5822 16.1823 18.7282 16.5837C18.8742 16.9852 19.3973 17.1768 19.6406 17.2224C19.5797 17.2224 19.5128 17.3958 19.7318 18.0892C19.0749 18.3081 18.6673 18.9407 18.5457 19.2297C18.5305 19.2601 18.3541 19.3027 17.5877 19.2297C17.5877 18.5727 17.1163 18.226 16.9034 18.1348C16.8882 18.0588 16.9034 17.7698 17.0859 17.2224Z" fill="white"/>
  <path d="M16.0483 23.6783C15.7052 24.8147 14.9649 24.3024 14.6877 24.1266L14.3829 24.3111L15.3828 25.3309L17.1435 25.2617C17.5106 24.6161 18.017 23.3182 17.6202 23.7371C16.8621 24.5376 16.8211 24.3001 16.8775 24.0471C16.9096 23.7204 16.3145 22.7965 16.0483 23.6783Z" fill="white"/>
</svg>
